<?xml version="1.0" encoding="iso-8859-1"?>
<!-- Uploaded to: SVG Repo, www.svgrepo.com, Generator: SVG Repo Mixer Tools -->
<svg version="1.1" id="Layer_1" xmlns="http://www.w3.org/2000/svg" xmlns:xlink="http://www.w3.org/1999/xlink" 
	 viewBox="0 0 512 512" xml:space="preserve">
<rect x="7.837" y="7.837" style="fill:#5BCDE4;" width="496.327" height="496.327"/>
<rect x="49.633" y="49.633" style="fill:#FFFFFF;" width="412.735" height="412.735"/>
<polygon style="fill:#9FE1ED;" points="7.837,7.837 49.633,49.633 462.367,49.633 462.367,462.367 504.163,504.163 504.163,7.837 
	"/>
<g>
	<rect x="146.286" y="135.858" style="fill:#5BCDE4;" width="219.429" height="71.492"/>
	<rect x="192.104" y="245.572" style="fill:#5BCDE4;" width="127.781" height="92.338"/>
</g>
<path d="M0,0v512h512V0H0z M459.121,41.796H52.879L26.757,15.673h458.486L459.121,41.796z M454.531,57.469v397.061H57.469V57.469
	H454.531z M41.796,52.879V459.12l-26.122,26.122V26.757L41.796,52.879z M52.879,470.204H459.12l26.122,26.122H26.757L52.879,470.204
	z M470.204,459.121V52.879l26.122-26.122v458.486L470.204,459.121z"/>
<path d="M327.729,345.75V237.738H184.27V345.75L327.729,345.75L327.729,345.75z M199.943,253.412h112.112v76.665H199.943V253.412z"
	/>
<path d="M373.551,238.695h-15.673v129.608H154.122V215.185h219.429v-87.161H138.449v255.953h235.102V238.695z M154.122,143.697
	h203.755v55.814H154.122V143.697z"/>
</svg>